<?xml version="1.0" encoding="utf-8"?>
<!-- Generator: Adobe Illustrator 25.4.1, SVG Export Plug-In . SVG Version: 6.00 Build 0)  -->
<svg version="1.1" id="Calque_1" xmlns="http://www.w3.org/2000/svg" xmlns:xlink="http://www.w3.org/1999/xlink" x="0px" y="0px"
	 viewBox="0 0 300 300" style="enable-background:new 0 0 300 300;" xml:space="preserve">
<style type="text/css">
	.st0{fill:#FD2D01;}
</style>
<path class="st0" d="M147.8,256.6c28.6,0,55.3-11,75.5-31.1c20.1-20.1,31.1-46.9,31.1-75.5c0-28.6-11-55.3-31.1-75.5
	c-20.1-20.1-46.9-31.1-75.5-31.1s-55.3,11-75.5,31.1C52.2,94.7,41.2,121.4,41.2,150s11,55.3,31.1,75.5S119.3,256.6,147.8,256.6z
	 M154,238.5c-2,0.3-4.1,0.3-6.1,0.3c-2.8,0-5.6-0.3-8.4-0.5c-9.2-14.3-16.1-29.6-20.1-45.6h45.1c1.5,3.8,4.3,7.4,7.7,9.7
	C167.7,215,161.6,227,154,238.5z M178.2,233.4c4.8-8.9,8.7-17.8,11.7-27.3c7.4-1.5,13.3-6.6,16.1-13.5h19.6
	C215.4,211.2,198.3,225.7,178.2,233.4z M236.3,150c0,8.4-1.3,16.6-3.3,24.5h-27.5c-1.5-3.3-4.1-6.4-7.1-8.7
	c0.5-5.6,0.8-11.2,0.8-16.8c0-7.9-0.5-15.8-1.5-23.5h35.2C235.3,133.2,236.3,141.6,236.3,150L236.3,150z M225.6,107.4h-31.1
	c-3.3-14-8.2-27.3-14.8-40C199.1,74.8,215.4,89.3,225.6,107.4z M181.2,149c0,4.3-0.3,8.7-0.5,13c-7.1,1.5-13,6.1-15.8,12.5h-49.2
	c-1-7.6-1.8-15.6-1.8-23.2c0-4.8,0.3-9.7,0.8-14.5c6.6-1.3,12-5.6,15.3-11.2h49.7C180.7,133.2,181.2,141.1,181.2,149L181.2,149z
	 M141.2,61.8c2.3-0.3,4.6-0.3,6.6-0.3c2.6,0,5.1,0,7.6,0.3c9.2,14.3,16.1,29.6,20.1,45.6h-44.4c-1.5-4.3-4.3-8.2-7.9-11
	C127.9,84.2,133.8,72.7,141.2,61.8L141.2,61.8z M117,66.9c-4.3,8.2-8.2,16.8-11.2,25.5c-7.9,1.5-14.3,7.4-16.8,14.8H70.3
	C80.3,89.1,96.8,74.5,117,66.9z M59.3,150c0-8.4,1.3-16.8,3.6-24.5h27.8c1.5,2.8,3.8,5.4,6.4,7.4c-0.5,6.1-1,12.2-1,18.4
	c0,7.9,0.5,15.6,1.5,23.2H62.9C60.4,166.6,59.3,158.4,59.3,150z M100.7,192.3c3.3,13.8,8.2,27.3,14.8,40
	c-19.4-7.7-35.4-21.9-45.4-40H100.7z"/>
</svg>
